<svg width="297" height="90" viewBox="0 0 297 90" fill="none" xmlns="http://www.w3.org/2000/svg">
<path fill-rule="evenodd" clip-rule="evenodd" d="M48.5332 28.834C49.4664 26.6011 51.7994 25.0013 54.2323 25.0013C72.5959 25.0013 90.9595 25.0013 109.356 25.0013C110.956 24.968 112.556 25.5679 113.722 26.6344C115.055 27.8342 115.822 29.6339 115.789 31.4336C115.789 38.4657 115.789 45.4979 115.789 52.5634C115.755 55.7295 112.989 58.5957 109.823 58.6624C103.124 58.6957 96.4252 58.6624 89.7264 58.6624C90.6262 60.8953 91.5261 63.095 92.4259 65.3279C88.4266 63.1283 84.4939 60.862 80.4612 58.6957C71.6627 58.6291 62.8309 58.6957 53.999 58.6624C50.8329 58.5624 48.0667 55.7295 48.0333 52.5634C48 45.6645 48.0333 38.7657 48 31.9002C48 30.867 48.1 29.8005 48.5332 28.834Z" fill="#945C87"/>
<path fill-rule="evenodd" clip-rule="evenodd" d="M75.4622 29.3342C76.462 28.2677 78.395 28.601 79.1616 29.8341C79.5615 30.4673 79.5948 31.3339 79.2615 32.0004C77.8618 34.7999 77.2619 37.8994 76.7286 40.9323C76.0954 44.8983 75.5622 48.9309 75.7621 52.9636C75.8288 53.9968 75.3289 55.2299 74.2291 55.4965C73.1959 55.7298 72.2294 55.0299 71.5628 54.2967C68.5633 51.0639 66.8636 46.8979 65.6305 42.732C64.3974 45.1649 63.1642 47.6311 61.9644 50.0641C61.1312 51.7305 60.2314 53.4302 58.8983 54.7633C58.3317 55.3299 57.3652 55.8298 56.632 55.2632C55.5322 54.2967 55.2655 52.7636 54.799 51.4638C53.0326 45.3649 52.0328 39.0659 50.9996 32.8003C50.7663 31.7671 51.1996 30.5007 52.2327 30.1007C53.0659 29.8008 54.1657 29.7341 54.8656 30.3673C55.3655 30.8006 55.4988 31.5005 55.5988 32.1337C56.332 36.9996 57.1652 41.8321 58.365 46.598C60.3647 42.7986 62.3644 38.9992 64.364 35.1665C64.664 34.6 65.0306 34.0334 65.5638 33.7001C66.297 33.2335 67.3635 33.2669 67.9968 33.9334C68.4967 34.4667 68.6966 35.2332 68.8299 35.9331C69.4298 39.0659 70.2297 42.1987 71.3962 45.1649C71.8961 40.6656 72.5293 36.0997 74.1624 31.8671C74.529 30.9673 74.8623 30.0674 75.4622 29.3342ZM86.7603 31.7671C88.9266 31.5005 91.2595 32.2337 92.726 33.8668C93.9258 35.2332 94.5923 36.9996 94.8256 38.766C95.1922 41.7988 94.6257 44.9983 93.1592 47.6978C92.326 49.2309 91.2595 50.7306 89.7265 51.6305C87.4935 52.9969 84.494 52.8303 82.3277 51.3972C80.5947 50.1974 79.6282 48.1977 79.2282 46.1981C78.4284 41.6321 79.7948 36.5663 83.2276 33.4002C84.2274 32.5003 85.4605 31.9338 86.7603 31.7671ZM87.1936 36.433C86.1604 36.7663 85.4938 37.7328 84.9273 38.5993C83.5275 40.8656 83.1276 43.8318 84.2607 46.2647C84.5607 46.8979 85.0273 47.5978 85.7938 47.7311C86.5937 47.8644 87.3269 47.3979 87.8934 46.8979C89.1599 45.7981 89.7931 44.1651 90.1264 42.532C90.4597 40.699 90.293 38.666 89.2266 37.0662C88.7933 36.4663 87.9268 36.1997 87.1936 36.433ZM104.057 31.7671C106.157 31.5005 108.457 32.1671 109.923 33.7335C111.256 35.1666 111.956 37.0662 112.156 38.9992C112.456 41.9321 111.923 44.9983 110.523 47.5978C109.69 49.1642 108.59 50.6973 106.99 51.6305C104.857 52.9303 101.991 52.797 99.8581 51.5305C98.425 50.664 97.4585 49.1976 96.8919 47.6312C95.3922 42.8653 96.6586 37.2662 100.125 33.6668C101.258 32.667 102.624 31.9338 104.057 31.7671ZM104.524 36.433C103.391 36.8329 102.724 37.9328 102.124 38.8993C100.858 41.1322 100.525 44.0317 101.691 46.398C101.991 47.0646 102.558 47.6978 103.324 47.7311C104.157 47.7645 104.891 47.2312 105.491 46.6646C106.79 45.3982 107.357 43.5985 107.557 41.8321C107.757 40.199 107.49 38.4327 106.524 37.0329C106.124 36.4663 105.257 36.1997 104.524 36.433Z" fill="white"/>
<path fill-rule="evenodd" clip-rule="evenodd" d="M127.187 32.4C129.02 32.0001 130.953 32.0334 132.786 32.4667C132.786 33.9664 132.786 35.4662 132.786 36.9659C131.286 36.5993 129.587 36.266 128.154 36.9659C126.421 37.8325 125.454 39.7988 125.454 41.6651C125.354 43.5315 125.987 45.6312 127.654 46.6976C129.187 47.6975 131.153 47.4975 132.819 47.0309C132.819 48.5307 132.819 50.0304 132.819 51.5302C130.587 52.1634 128.154 52.0968 125.987 51.2969C123.388 50.3304 121.321 48.0641 120.522 45.3979C119.922 43.3649 119.855 41.1986 120.322 39.1322C121.088 35.8328 123.888 33.1332 127.187 32.4ZM140.718 32.1667C142.984 31.9001 145.451 32.2667 147.284 33.6998C149.05 35.0662 149.917 37.2992 150.25 39.4322C150.55 41.7985 150.483 44.2647 149.75 46.531C149.117 48.464 147.817 50.2637 145.951 51.1636C144.051 52.0634 141.818 52.1301 139.785 51.6635C137.919 51.2302 136.252 49.9971 135.319 48.2974C134.019 46.0311 133.786 43.3315 133.886 40.7653C133.986 38.5657 134.553 36.266 136.019 34.5663C137.219 33.1999 138.952 32.3667 140.718 32.1667ZM141.418 36.466C140.452 36.6993 139.885 37.6658 139.652 38.5657C139.185 40.3654 139.252 42.2317 139.385 44.0647C139.518 45.0646 139.618 46.1311 140.318 46.9309C141.251 47.9974 143.151 47.8641 143.984 46.7643C144.551 46.0644 144.718 45.1646 144.818 44.298C145.017 42.765 145.051 41.1986 144.818 39.6655C144.651 38.7323 144.384 37.7658 143.718 37.0659C143.118 36.466 142.218 36.266 141.418 36.466ZM230.303 32.4667C232.236 31.9668 234.269 32.0334 236.202 32.4333C236.236 33.9331 236.202 35.4329 236.236 36.9659C234.769 36.5993 233.136 36.266 231.703 36.8993C230.037 37.6658 229.037 39.4322 228.904 41.1986C228.704 43.1982 229.237 45.4645 231.003 46.631C232.536 47.6975 234.536 47.4975 236.236 46.9976C236.202 48.4973 236.269 50.0304 236.202 51.5302C233.836 52.1301 231.236 52.0634 229.003 51.0969C226.537 50.0304 224.604 47.7641 223.904 45.1646C223.371 43.1649 223.304 41.0319 223.804 38.9989C224.538 35.8661 227.17 33.2999 230.303 32.4667ZM153.216 32.6C155.349 32.6 157.515 32.6 159.648 32.6C160.415 36.0661 161.148 39.5655 161.815 43.0649C162.415 39.5322 163.248 36.0661 164.081 32.6C166.281 32.6 168.48 32.6 170.68 32.6C171.546 38.8989 172.38 45.1979 173.213 51.4635C171.546 51.4635 169.847 51.4635 168.18 51.4635C167.714 47.1642 167.314 42.8316 166.814 38.5323C165.781 42.8316 164.714 47.1642 163.681 51.4635C162.548 51.4635 161.381 51.4635 160.248 51.4635C159.148 47.1642 158.082 42.8316 156.949 38.499C156.516 42.7983 156.082 47.1309 155.649 51.4635C154.049 51.4635 152.45 51.4635 150.817 51.4635C151.616 45.1979 152.416 38.8989 153.216 32.6ZM176.279 32.6C178.412 32.6 180.578 32.6 182.711 32.6C183.478 36.0661 184.211 39.5655 184.877 43.0649C185.511 39.5655 186.311 36.0661 187.144 32.6H193.709C194.576 38.8989 195.409 45.1979 196.242 51.4635C194.576 51.4635 192.876 51.4635 191.21 51.4635C190.743 47.1642 190.31 42.8316 189.843 38.5323C188.81 42.8316 187.777 47.1642 186.711 51.4635C185.577 51.4635 184.411 51.4635 183.278 51.4635C182.178 47.1309 181.078 42.8316 179.978 38.499C179.545 42.8316 179.112 47.1309 178.679 51.4635C177.079 51.4635 175.479 51.4635 173.846 51.4635C174.679 45.1979 175.479 38.8989 176.279 32.6ZM197.709 32.6666C201.141 32.6 204.608 32.6666 208.04 32.6333C208.04 33.9664 208.04 35.2995 208.04 36.666C206.307 36.6993 204.574 36.666 202.841 36.666C202.841 37.8324 202.841 38.9656 202.841 40.1321C204.341 40.1321 205.841 40.1321 207.34 40.1321C207.34 41.4319 207.34 42.7316 207.34 44.0314C205.841 44.0314 204.341 44.0314 202.841 44.0314C202.841 45.1646 202.841 46.331 202.841 47.4975C204.574 47.4975 206.341 47.4975 208.074 47.4975C208.074 48.8306 208.074 50.1637 208.074 51.5302C204.641 51.5302 201.175 51.5302 197.742 51.5302C197.709 45.2312 197.775 38.9656 197.709 32.6666ZM209.507 32.6C211.673 32.6 213.806 32.5667 215.972 32.6C218.005 32.6666 220.172 33.1666 221.671 34.5997C223.038 35.8661 223.504 37.9658 222.971 39.7321C222.538 41.1652 221.471 42.3317 220.138 42.9649C221.471 45.7978 222.838 48.6307 224.204 51.4635C222.405 51.4635 220.605 51.4635 218.839 51.4635C217.439 48.564 216.072 45.6645 214.639 42.7983C214.606 45.6978 214.639 48.5973 214.639 51.4635C212.939 51.4635 211.24 51.4635 209.54 51.4635C209.507 45.1979 209.507 38.8989 209.507 32.6ZM214.606 36.2327C214.606 37.7325 214.606 39.2322 214.606 40.732C215.539 40.6653 216.539 40.632 217.305 40.0654C218.205 39.3989 218.105 38.0324 217.539 37.1659C216.839 36.3327 215.606 36.3327 214.606 36.2327ZM237.669 32.6333C241.101 32.6333 244.534 32.6333 247.967 32.6333C247.967 33.9664 247.967 35.3329 247.967 36.666C246.234 36.666 244.468 36.666 242.735 36.666C242.735 37.8324 242.735 38.9656 242.735 40.1321C244.234 40.1321 245.734 40.1321 247.234 40.1321C247.234 41.4319 247.234 42.7316 247.234 44.0314H242.735C242.735 45.1979 242.735 46.331 242.735 47.4975C244.501 47.4975 246.234 47.4975 248 47.4975C248 48.8306 248 50.1637 248 51.5302C244.568 51.5302 241.101 51.5302 237.669 51.5302C237.635 45.1979 237.669 38.8989 237.669 32.6333Z" fill="black"/>
</svg>
